# xmcd CD database file
#
# Track frame offsets:
#	150
#	24957
#	44350
#	69157
#
# Disc length: 1176 seconds
#
# Revision: 0
# Processed by: cddbd v1.5.1PL0 Copyright (c) Steve Scherf et al.
# Submitted via: CDex 1.50
#
DISCID=26049604
DTITLE=hiro - 光の中で
DYEAR=2004
DGENRE=Pop
TTITLE0=光の中で
TTITLE1=I wanna be your love
TTITLE2=光の中で(Instrumental)
TTITLE3=I wanna be your love(Instrumental)
EXTD=YEAR: 2004
EXTT0=
EXTT1=
EXTT2=
EXTT3=
PLAYORDER=
